<mxfile host="app.diagrams.net">
  <diagram name="Diagrama de Secuencia UML">
    <mxGraphModel dx="1174" dy="541" grid="1" gridSize="10" guides="1" tooltips="1" connect="1" arrows="1" fold="1" page="1" pageScale="1" pageWidth="827" pageHeight="1169">
      <root>
        <mxCell id="0"/>
        <mxCell id="1" parent="0"/>

        <!-- Participantes -->
        <mxCell id="2" value="Cliente" style="shape=umlLifeline;verticalAlign=top;" vertex="1" parent="1">
          <mxGeometry x="40" y="20" width="100" height="400" as="geometry"/>
        </mxCell>
        <mxCell id="3" value="Front-end Web" style="shape=umlLifeline;verticalAlign=top;" vertex="1" parent="1">
          <mxGeometry x="160" y="20" width="100" height="400" as="geometry"/>
        </mxCell>
        <mxCell id="4" value="Gestor de Boletos" style="shape=umlLifeline;verticalAlign=top;" vertex="1" parent="1">
          <mxGeometry x="280" y="20" width="100" height="400" as="geometry"/>
        </mxCell>
        <mxCell id="5" value="Gestor de Asientos" style="shape=umlLifeline;verticalAlign=top;" vertex="1" parent="1">
          <mxGeometry x="400" y="20" width="100" height="400" as="geometry"/>
        </mxCell>
        <mxCell id="6" value="Gestor de Pagos" style="shape=umlLifeline;verticalAlign=top;" vertex="1" parent="1">
          <mxGeometry x="520" y="20" width="100" height="400" as="geometry"/>
        </mxCell>
        <mxCell id="7" value="BCP Gateway" style="shape=umlLifeline;verticalAlign=top;" vertex="1" parent="1">
          <mxGeometry x="640" y="20" width="100" height="400" as="geometry"/>
        </mxCell>
        <mxCell id="8" value="PayPal Gateway" style="shape=umlLifeline;verticalAlign=top;" vertex="1" parent="1">
          <mxGeometry x="760" y="20" width="100" height="400" as="geometry"/>
        </mxCell>
        <mxCell id="9" value="BaseDatos" style="shape=umlLifeline;verticalAlign=top;" vertex="1" parent="1">
          <mxGeometry x="880" y="20" width="100" height="400" as="geometry"/>
        </mxCell>
        <mxCell id="10" value="Notificador (Email/SMS)" style="shape=umlLifeline;verticalAlign=top;" vertex="1" parent="1">
          <mxGeometry x="1000" y="20" width="120" height="400" as="geometry"/>
        </mxCell>
        <mxCell id="11" value="Email/SMS" style="shape=umlLifeline;verticalAlign=top;" vertex="1" parent="1">
          <mxGeometry x="1140" y="20" width="100" height="400" as="geometry"/>
        </mxCell>

        <!-- Mensajes (representativos, no todos por espacio, pero puedes seguir el patrón) -->

        <mxCell id="12" value="" style="endArrow=block;" edge="1" parent="1" source="2" target="3">
          <mxGeometry relative="1" as="geometry">
            <mxPoint x="90" y="90" as="sourcePoint"/>
            <mxPoint x="200" y="90" as="targetPoint"/>
          </mxGeometry>
        </mxCell>
        <mxCell id="13" value="ingresar(origen, destino, fecha)" style="text;html=1;" vertex="1" parent="1">
          <mxGeometry x="100" y="75" width="220" height="20" as="geometry"/>
        </mxCell>

        <mxCell id="14" value="" style="endArrow=block;" edge="1" parent="1" source="3" target="4">
          <mxGeometry relative="1" as="geometry"/>
        </mxCell>
        <mxCell id="15" value="solicitarOpcionesViaje()" style="text;html=1;" vertex="1" parent="1">
          <mxGeometry x="180" y="110" width="220" height="20" as="geometry"/>
        </mxCell>

        <!-- Puedes seguir agregando el resto de llamadas siguiendo el mismo patrón -->

      </root>
    </mxGraphModel>
  </diagram>
</mxfile>
